:SAMPLES-PER-SECOND 24
:FULLY-SPECIFIED
:DEGREES
478
root  -4.308 39.6319 7.35957 87.8322 -2.27884 68.2593
RightUpLeg  -37.1127 -42.9078 -55.0103
RightLeg  0.619259 -11.8332 0.477916
RightFoot  -17.8716 0.544875 11.767
RightToes  -1.46203e-006 3.27826e-006 1.63871e-007
Spine  10.4986 -4.91819 1.99727
Spine1  5.67989 2.22856 -30.9558
HEad  -30.5929 58.0552 -55.6361
LeftShoulder1  1.94722 -3.19493 -22.7792
LeftArm  25.8257 -7.01601 -29.9655
LeftForeArm  152.065 -70.3345 -150.465
LeftHand  -0.310076 3.60147 19.7495
RightShoulder  1.41946 2.84773 15.646
RightArm  -25.0671 -25.7917 -8.36184
RightForeArm  139.439 58.0102 161.444
RightHand  -0.994268 0.4042 -19.8956
LeftUpLeg  -8.65746 21.9065 39.3905
LeftLeg  49.9369 -18.2908 -21.6168
LeftFoot  7.12891 6.3876 -38.1266
LeftToes  1.24767e-006 1.47042e-008 1.32732e-009
479
root  -4.00547 39.5732 5.92726 89.1618 -4.33672 69.1151
RightUpLeg  -40.3029 -44.6883 -56.4391
RightLeg  1.12207 -12.2839 -2.31233
RightFoot  -13.751 0.0283923 5.78324
RightToes  -1.46203e-006 3.27826e-006 1.63871e-007
Spine  8.82013 -6.10058 0.251994
Spine1  7.88169 -0.419063 -24.2794
HEad  -28.4393 58.904 -51.9203
LeftShoulder1  2.05112 -3.31695 -23.8377
LeftArm  27.6604 -5.00152 -28.7476
LeftForeArm  154.062 -70.8249 -149.971
LeftHand  -0.315347 3.31534 17.2832
RightShoulder  1.82115 3.58895 19.2595
RightArm  -19.1871 -28.9377 -2.60364
RightForeArm  144.663 54.8524 163.792
RightHand  -0.919642 0.493015 -18.1574
LeftUpLeg  5.22266 17.1905 42.3316
LeftLeg  11.1449 -21.5079 -1.44822
LeftFoot  2.86406 4.75847 -37.0845
LeftToes  1.24767e-006 1.47042e-008 1.32732e-009
480
root  -4.25319 39.2792 5.00052 92.3931 -6.03229 71.9013
RightUpLeg  -42.5805 -47.5169 -59.7525
RightLeg  5.25126 -13.219 -3.98941
RightFoot  -13.758 -0.0511005 1.77471
RightToes  -1.46203e-006 3.27826e-006 1.63871e-007
Spine  8.35866 -5.9614 0.044648
Spine1  8.09023 -1.09119 -22.2477
HEad  -24.4517 56.83 -48.7176
LeftShoulder1  2.18069 -3.4805 -25.0483
LeftArm  28.8623 -5.22628 -27.512
LeftForeArm  154.309 -72.6027 -146.851
LeftHand  -0.392956 2.61835 16.2079
RightShoulder  2.44904 4.61781 24.0059
RightArm  -12.7746 -34.6617 3.75162
RightForeArm  147.733 57.0676 162.746
RightHand  -0.853791 0.723577 -16.2736
LeftUpLeg  -1.31141 25.4394 44.3973
LeftLeg  20.5431 -22.0575 -10.4335
LeftFoot  1.4536 4.36613 -37.661
LeftToes  1.24767e-006 1.47042e-008 1.32732e-009
481
root  -4.80153 39.5733 4.04505 93.9441 -4.40642 71.8709
RightUpLeg  -41.9631 -48.3058 -59.7392
RightLeg  2.22858 -14.4786 -1.67575
RightFoot  -13.6569 -0.00669249 4.87386
RightToes  -1.46203e-006 3.27826e-006 1.63871e-007
Spine  9.63869 -4.53964 5.38083
Spine1  9.17156 2.11961 -25.2873
HEad  -22.4362 54.141 -47.8502
LeftShoulder1  2.36572 -3.65115 -26.9546
LeftArm  26.8526 -5.46431 -24.719
LeftForeArm  145.837 -74.621 -140.905
LeftHand  -0.42848 2.59803 17.6498
RightShoulder  3.28892 5.79071 29.4528
RightArm  -12.9801 -29.9947 14.8829
RightForeArm  144.94 65.2297 155.852
RightHand  -1.0358 2.03874 -16.277
LeftUpLeg  -11.5028 28.415 43.7511
LeftLeg  44.3455 -22.2033 -20.9071
LeftFoot  3.64474 5.40482 -39.7382
LeftToes  1.24767e-006 1.47042e-008 1.32732e-009
482
root  -5.46983 39.9197 3.51766 94.8405 -0.615446 71.1576
RightUpLeg  -42.3723 -48.2673 -55.5307
RightLeg  -1.69029 -15.1599 0.892987
RightFoot  -10.8693 -0.0917331 5.2705
RightToes  -1.46203e-006 3.27826e-006 1.63871e-007
Spine  10.7201 -2.99284 9.36976
Spine1  11.3399 5.32851 -26.8017
HEad  -20.2491 50.8556 -46.9909
LeftShoulder1  2.67114 -3.95447 -29.7775
LeftArm  24.1079 -3.58544 -21.8025
LeftForeArm  141.397 -74.374 -140.747
LeftHand  -0.357769 3.05553 17.5076
RightShoulder  3.69219 6.3531 31.576
RightArm  -7.11208 -13.1501 23.5191
RightForeArm  129.171 75.0306 136.047
RightHand  -1.25253 3.72994 -16.1144
LeftUpLeg  -21.9257 23.4461 42.5562
LeftLeg  58.3337 -15.2514 -24.4064
LeftFoot  3.53321 5.02561 -37.3582
LeftToes  1.24767e-006 1.47042e-008 1.32732e-009
483
root  -6.24418 39.9185 3.63495 95.5853 2.36623 72.8495
RightUpLeg  -42.9713 -48.7048 -53.8008
RightLeg  1.96341 -15.7385 1.62664
RightFoot  -11.4192 -0.0749734 3.68156
RightToes  -1.46203e-006 3.27826e-006 1.63871e-007
Spine  12.7265 -1.83275 8.73103
Spine1  12.6178 6.92216 -26.5436
HEad  -18.9474 46.9347 -45.3319
LeftShoulder1  2.83884 -4.17954 -30.9332
LeftArm  24.2944 -2.36615 -20.6326
LeftForeArm  148.95 -71.8261 -147.502
LeftHand  -0.296444 3.18258 15.2193
RightShoulder  3.54834 6.40449 29.8975
RightArm  1.76986 0.0474183 31.0462
RightForeArm  108.83 78.8979 112.613
RightHand  -1.22261 4.30312 -14.8414
LeftUpLeg  -36.7818 26.7563 35.6455
LeftLeg  72.3476 -7.18868 -23.2041
LeftFoot  3.24807 4.51938 -34.4722
LeftToes  1.24767e-006 1.47042e-008 1.32732e-009
484
root  -6.83893 40.389 3.21912 96.8002 5.37349 81.4049
RightUpLeg  -27.149 -50.8064 -64.0083
RightLeg  -1.51977 -19.6454 5.20231
RightFoot  -9.07871 -0.141912 4.10921
RightToes  -1.46203e-006 3.27826e-006 1.63871e-007
Spine  15.407 -4.06357 8.15835
Spine1  11.9948 4.46095 -25.9428
HEad  -20.1975 44.8611 -45.2184
LeftShoulder1  2.85227 -4.27128 -30.668
LeftArm  24.0156 -1.80061 -19.7455
LeftForeArm  155.043 -69.0423 -152.742
LeftHand  -0.2458 3.23187 12.755
RightShoulder  3.31138 6.35955 27.5982
RightArm  7.39221 8.44451 39.6034
RightForeArm  98.2549 79.6383 100.435
RightHand  -1.26968 5.03122 -14.3639
LeftUpLeg  -58.042 25.4872 19.6484
LeftLeg  88.8207 0.163816 -21.717
LeftFoot  2.68643 4.44669 -35.2278
LeftToes  1.24767e-006 1.47042e-008 1.32732e-009
